<svg width="256" height="256" viewBox="0 0 256 256" fill="none" xmlns="http://www.w3.org/2000/svg">
  <title>LocalReviewsBoost icon</title>
  <desc>Minimal map pin logo with a teal star inside.</desc>
  <path d="M128 18C77.1898 18 36 59.1898 36 110C36 176.996 108.227 227.212 120.984 235.519C125.225 238.279 130.775 238.279 135.016 235.519C147.773 227.212 220 176.996 220 110C220 59.1898 178.81 18 128 18Z" fill="#0F172A"/>
  <path d="M128 46C92.6538 46 64 74.6538 64 110C64 154.538 107.421 192.674 123.434 204.723C126.112 206.738 129.888 206.738 132.566 204.723C148.579 192.674 192 154.538 192 110C192 74.6538 163.346 46 128 46Z" fill="#F8FAFC"/>
  <circle cx="128" cy="110" r="42" fill="#0F172A"/>
  <path d="M128 74L136.816 91.8663L156 94.6538L142 108.302L145.305 127.577L128 118.48L110.695 127.577L114 108.302L100 94.6538L119.184 91.8663L128 74Z" fill="#14B8A6"/>
</svg>
