<svg width="720" height="160" viewBox="0 0 720 160" fill="none" xmlns="http://www.w3.org/2000/svg">
  <title>LocalReviewsBoost logo</title>
  <desc>LocalReviewsBoost wordmark with a minimal map pin icon and teal highlight.</desc>
  <rect width="720" height="160" rx="32" fill="transparent"/>
  <g transform="translate(16 16)">
    <path d="M64 4C28.6538 4 0 32.6538 0 68C0 114.261 49.9492 148.942 58.7732 154.688C61.7077 156.599 65.2923 156.599 68.2268 154.688C77.0508 148.942 127 114.261 127 68C127 32.6538 99.3462 4 64 4Z" fill="#0F172A"/>
    <path d="M64 24C39.6995 24 20 43.6995 20 68C20 98.8987 49.5701 126.266 59.1635 133.828C62.0119 136.074 65.9881 136.074 68.8365 133.828C78.4299 126.266 108 98.8987 108 68C108 43.6995 88.3005 24 64 24Z" fill="#F8FAFC"/>
    <circle cx="64" cy="68" r="26" fill="#0F172A"/>
    <path d="M64 45L69.6122 56.3734L82.1631 58.1976L73.0816 67.0504L75.2254 79.5574L64 73.6579L52.7746 79.5574L54.9184 67.0504L45.8369 58.1976L58.3878 56.3734L64 45Z" fill="#14B8A6"/>
  </g>
  <g fill="#0F172A">
    <path d="M178.409 102V54.1818H188.438V93.6477H209.415V102H178.409Z"/>
    <path d="M239.983 102.716C228.869 102.716 221.028 94.9659 221.028 83.2159C221.028 71.25 228.608 63.2614 239.46 63.2614C250.051 63.2614 257.489 70.7955 257.489 81.4659V84.3466H230.744C231.153 90.2784 234.909 94.0795 240.358 94.0795C244.045 94.0795 246.969 92.4773 248.164 89.642H257.163C255.685 97.5057 249.171 102.716 239.983 102.716ZM230.889 77.8239H247.803C247.292 72.3864 243.841 68.9318 239.409 68.9318C234.807 68.9318 231.477 72.5511 230.889 77.8239Z"/>
    <path d="M279.538 102.716C268.969 102.716 261.534 94.75 261.534 82.9886C261.534 71.2955 269.065 63.2614 279.872 63.2614C288.747 63.2614 295.69 68.2841 296.79 76.4205H287.84C286.888 72.492 283.798 69.7784 279.964 69.7784C274.538 69.7784 271.324 74.1648 271.324 82.892C271.324 91.7102 274.585 96.1761 280.06 96.1761C283.919 96.1761 286.912 93.8977 287.959 89.9773H296.858C295.884 98.0568 289.03 102.716 279.538 102.716Z"/>
    <path d="M317.646 102.716C309.948 102.716 304.962 97.9659 304.962 90.8068C304.962 83.517 310.458 79.4205 320.859 78.767L330.055 78.1875V75.7557C330.055 71.8239 327.357 69.4716 322.835 69.4716C318.568 69.4716 315.774 71.5057 315.24 74.7614H306.409C306.682 67.6477 313.001 63.2614 323.193 63.2614C333.212 63.2614 339.511 68.1364 339.511 75.8466V102H330.456V95.892H330.269C328.172 99.9886 323.945 102.716 317.646 102.716ZM320.248 96.1307C325.156 96.1307 330.055 92.5795 330.055 87.9034V85.3295L322.128 85.8409C316.639 86.1989 313.984 88.117 313.984 91.3466C313.984 94.7216 316.826 96.1307 320.248 96.1307Z"/>
    <path d="M348.321 102V64H357.602V70.2557H357.79C359.294 65.9489 362.915 63.4318 367.389 63.4318C368.602 63.4318 369.865 63.625 370.524 63.9091V72.2188C369.768 71.9205 367.96 71.6364 366.523 71.6364C361.338 71.6364 358.35 74.8466 358.35 80.2159V102H348.321Z"/>
    <path d="M392.753 102.716C381.639 102.716 373.798 94.9659 373.798 83.2159C373.798 71.25 381.378 63.2614 392.23 63.2614C402.821 63.2614 410.259 70.7955 410.259 81.4659V84.3466H383.514C383.923 90.2784 387.679 94.0795 393.128 94.0795C396.815 94.0795 399.739 92.4773 400.934 89.642H409.933C408.455 97.5057 401.941 102.716 392.753 102.716ZM383.659 77.8239H400.573C400.062 72.3864 396.611 68.9318 392.179 68.9318C387.577 68.9318 384.247 72.5511 383.659 77.8239Z"/>
    <path d="M431.461 102V54.1818H451.245C461.467 54.1818 468.006 59.6932 468.006 68.5341C468.006 77.3864 461.378 82.9602 451.168 82.9602H441.491V102H431.461ZM441.491 75.1307H448.603C454.771 75.1307 457.81 72.8523 457.81 68.5341C457.81 64.2273 454.771 61.9489 448.603 61.9489H441.491V75.1307Z"/>
    <path d="M487.153 102.716C476.175 102.716 468.249 94.875 468.249 83C468.249 71.125 476.175 63.2614 487.153 63.2614C498.118 63.2614 506.058 71.125 506.058 83C506.058 94.875 498.118 102.716 487.153 102.716ZM487.153 95.3409C492.181 95.3409 495.862 90.8807 495.862 83C495.862 75.1079 492.181 70.6364 487.153 70.6364C482.102 70.6364 478.445 75.1079 478.445 83C478.445 90.8807 482.102 95.3409 487.153 95.3409Z"/>
    <path d="M513.184 102V64H522.465V70.2557H522.652C524.156 65.9489 527.778 63.4318 532.252 63.4318C533.465 63.4318 534.727 63.625 535.386 63.9091V72.2188C534.63 71.9205 532.823 71.6364 531.386 71.6364C526.201 71.6364 523.213 74.8466 523.213 80.2159V102H513.184Z"/>
    <path d="M555.167 102.716C545.57 102.716 540.484 98.9205 540.058 91.6761H549.208C549.779 94.9205 552.437 96.625 556.924 96.625C561.207 96.625 563.749 94.9375 563.749 92.2557C563.749 89.892 561.896 88.5057 557.618 87.5966L551.464 86.3068C543.41 84.625 540.081 81.3864 540.081 75.1932C540.081 67.8523 546.704 63.2614 555.758 63.2614C564.67 63.2614 570.813 67.8977 571.125 74.9716H562.43C561.867 71.8523 559.564 70.0795 555.69 70.0795C551.717 70.0795 549.339 71.6705 549.339 74.1705C549.339 76.3182 551.225 77.7386 555.268 78.5909L561.406 79.8636C570.128 81.6705 573.19 84.6591 573.19 90.9659C573.19 98.5909 566.303 102.716 555.167 102.716Z"/>
    <path d="M593.023 102.716C583.426 102.716 578.339 98.9205 577.913 91.6761H587.063C587.634 94.9205 590.293 96.625 594.779 96.625C599.063 96.625 601.605 94.9375 601.605 92.2557C601.605 89.892 599.751 88.5057 595.474 87.5966L589.32 86.3068C581.266 84.625 577.937 81.3864 577.937 75.1932C577.937 67.8523 584.56 63.2614 593.614 63.2614C602.526 63.2614 608.668 67.8977 608.98 74.9716H600.286C599.723 71.8523 597.42 70.0795 593.545 70.0795C589.573 70.0795 587.195 71.6705 587.195 74.1705C587.195 76.3182 589.08 77.7386 593.124 78.5909L599.261 79.8636C607.983 81.6705 611.046 84.6591 611.046 90.9659C611.046 98.5909 604.159 102.716 593.023 102.716Z"/>
    <path d="M617.561 102V54.1818H627.59V102H617.561Z"/>
    <path d="M651.748 102.716C640.77 102.716 632.844 94.875 632.844 83C632.844 71.125 640.77 63.2614 651.748 63.2614C662.713 63.2614 670.653 71.125 670.653 83C670.653 94.875 662.713 102.716 651.748 102.716ZM651.748 95.3409C656.776 95.3409 660.457 90.8807 660.457 83C660.457 75.1079 656.776 70.6364 651.748 70.6364C646.697 70.6364 643.04 75.1079 643.04 83C643.04 90.8807 646.697 95.3409 651.748 95.3409Z"/>
  </g>
  <path d="M614 120H673" stroke="#14B8A6" stroke-width="8" stroke-linecap="round"/>
</svg>
