<svg width="720" height="420" viewBox="0 0 720 420" fill="none" xmlns="http://www.w3.org/2000/svg">
  <rect width="720" height="420" rx="28" fill="#F5F7FA"/>
  <rect x="28" y="28" width="664" height="364" rx="24" fill="white"/>
  <rect x="52" y="54" width="180" height="132" rx="20" fill="#111827"/>
  <text x="76" y="94" fill="#E5E7EB" font-family="Arial, sans-serif" font-size="20" font-weight="700">Review score</text>
  <text x="76" y="138" fill="white" font-family="Arial, sans-serif" font-size="54" font-weight="700">4.9</text>
  <rect x="76" y="152" width="88" height="30" rx="15" fill="#14B8A6"/>
  <text x="97" y="172" fill="white" font-family="Arial, sans-serif" font-size="14" font-weight="700">+38% MoM</text>
  <rect x="252" y="54" width="416" height="132" rx="20" fill="#F9FAFB" stroke="#E5E7EB"/>
  <text x="278" y="88" fill="#111827" font-family="Arial, sans-serif" font-size="20" font-weight="700">Review growth trend</text>
  <path d="M292 150C334 154 348 112 386 118C424 124 432 84 474 90C516 96 534 148 574 138C606 130 616 90 642 70" stroke="#0F766E" stroke-width="8" stroke-linecap="round"/>
  <circle cx="386" cy="118" r="8" fill="#0F766E"/>
  <circle cx="474" cy="90" r="8" fill="#0F766E"/>
  <circle cx="574" cy="138" r="8" fill="#0F766E"/>
  <rect x="52" y="212" width="192" height="156" rx="20" fill="#F9FAFB" stroke="#E5E7EB"/>
  <text x="76" y="246" fill="#111827" font-family="Arial, sans-serif" font-size="20" font-weight="700">Locations</text>
  <circle cx="86" cy="283" r="8" fill="#F59E0B"/>
  <text x="106" y="288" fill="#374151" font-family="Arial, sans-serif" font-size="16">New York</text>
  <circle cx="86" cy="317" r="8" fill="#14B8A6"/>
  <text x="106" y="322" fill="#374151" font-family="Arial, sans-serif" font-size="16">London</text>
  <circle cx="86" cy="351" r="8" fill="#111827"/>
  <text x="106" y="356" fill="#374151" font-family="Arial, sans-serif" font-size="16">Sydney</text>
  <rect x="268" y="212" width="400" height="156" rx="20" fill="#FFF7ED" stroke="#FED7AA"/>
  <text x="292" y="246" fill="#9A3412" font-family="Arial, sans-serif" font-size="20" font-weight="700">Trust signals</text>
  <rect x="292" y="270" width="150" height="32" rx="16" fill="white"/>
  <text x="316" y="291" fill="#7C2D12" font-family="Arial, sans-serif" font-size="15" font-weight="700">Recent reviews</text>
  <rect x="456" y="270" width="164" height="32" rx="16" fill="white"/>
  <text x="478" y="291" fill="#7C2D12" font-family="Arial, sans-serif" font-size="15" font-weight="700">Location focus</text>
  <rect x="292" y="318" width="182" height="32" rx="16" fill="white"/>
  <text x="314" y="339" fill="#7C2D12" font-family="Arial, sans-serif" font-size="15" font-weight="700">Clear onboarding</text>
  <rect x="488" y="318" width="132" height="32" rx="16" fill="white"/>
  <text x="510" y="339" fill="#7C2D12" font-family="Arial, sans-serif" font-size="15" font-weight="700">Support</text>
</svg>
